<svg width="1920" height="1080" viewBox="0 0 1920 1080" xmlns="http://www.w3.org/2000/svg">
  <defs>
    <!-- Gradient incorporating brand colors -->
    <linearGradient id="grad1" x1="0%" y1="0%" x2="100%" y2="100%">
      <stop offset="0%" style="stop-color:#0a423b;stop-opacity:0.1" />
      <stop offset="50%" style="stop-color:#439aa3;stop-opacity:0.05" />
      <stop offset="100%" style="stop-color:#0a423b;stop-opacity:0.1" />
    </linearGradient>
    
    <!-- Pattern for speed lines -->
    <pattern id="speedLines" x="0" y="0" width="200" height="200" patternUnits="userSpaceOnUse">
      <line x1="0" y1="0" x2="200" y2="200" stroke="#439aa3" stroke-width="0.5" opacity="0.1" />
      <line x1="50" y1="0" x2="250" y2="200" stroke="#439aa3" stroke-width="0.3" opacity="0.05" />
      <line x1="-50" y1="0" x2="150" y2="200" stroke="#0a423b" stroke-width="0.3" opacity="0.05" />
    </pattern>
    
    <!-- Athletic geometric shapes -->
    <pattern id="hexPattern" x="0" y="0" width="150" height="173.2" patternUnits="userSpaceOnUse">
      <polygon points="75,0 150,43.3 150,129.9 75,173.2 0,129.9 0,43.3" 
               fill="none" stroke="#439aa3" stroke-width="0.5" opacity="0.08" />
    </pattern>
  </defs>
  
  <!-- Base gradient background -->
  <rect width="1920" height="1080" fill="url(#grad1)" />
  
  <!-- Speed lines overlay -->
  <rect width="1920" height="1080" fill="url(#speedLines)" />
  
  <!-- Hexagonal pattern overlay -->
  <rect width="1920" height="1080" fill="url(#hexPattern)" />
  
  <!-- Dynamic diagonal accents -->
  <g opacity="0.03">
    <rect x="1400" y="-200" width="300" height="1500" fill="#439aa3" transform="rotate(35 1550 650)" />
    <rect x="1600" y="-200" width="200" height="1500" fill="#0a423b" transform="rotate(35 1700 650)" />
    <rect x="1750" y="-200" width="150" height="1500" fill="#439aa3" transform="rotate(35 1825 650)" />
  </g>
  
  <!-- Subtle motion blur effect -->
  <g opacity="0.02">
    <ellipse cx="300" cy="200" rx="400" ry="100" fill="#439aa3" transform="rotate(-20 300 200)" />
    <ellipse cx="1620" cy="880" rx="500" ry="120" fill="#0a423b" transform="rotate(25 1620 880)" />
  </g>
</svg>