<svg width="1920" height="1080" viewBox="0 0 1920 1080" xmlns="http://www.w3.org/2000/svg">
  <defs>
    <!-- Radial gradient for energy burst -->
    <radialGradient id="energyGrad">
      <stop offset="0%" style="stop-color:#439aa3;stop-opacity:0.15" />
      <stop offset="50%" style="stop-color:#439aa3;stop-opacity:0.05" />
      <stop offset="100%" style="stop-color:#0a423b;stop-opacity:0" />
    </radialGradient>
    
    <!-- Athletic track pattern -->
    <pattern id="trackLines" x="0" y="0" width="100" height="100" patternUnits="userSpaceOnUse">
      <circle cx="50" cy="50" r="45" fill="none" stroke="#0a423b" stroke-width="0.5" opacity="0.05" />
      <circle cx="50" cy="50" r="35" fill="none" stroke="#439aa3" stroke-width="0.3" opacity="0.05" />
      <circle cx="50" cy="50" r="25" fill="none" stroke="#0a423b" stroke-width="0.3" opacity="0.03" />
    </pattern>
    
    <!-- Dynamic mesh pattern -->
    <pattern id="mesh" x="0" y="0" width="50" height="50" patternUnits="userSpaceOnUse">
      <path d="M0,25 L25,0 L50,25 L25,50 Z" fill="none" stroke="#439aa3" stroke-width="0.3" opacity="0.06" />
    </pattern>
  </defs>
  
  <!-- Base background -->
  <rect width="1920" height="1080" fill="#fafafa" />
  
  <!-- Energy burst background -->
  <circle cx="1200" cy="400" r="800" fill="url(#energyGrad)" />
  
  <!-- Track pattern overlay -->
  <rect width="1920" height="1080" fill="url(#trackLines)" />
  
  <!-- Mesh overlay -->
  <rect width="1920" height="1080" fill="url(#mesh)" transform="rotate(15 960 540)" />
  
  <!-- Dynamic streaks -->
  <g opacity="0.04">
    <path d="M0,300 Q480,250 960,300 T1920,300" fill="none" stroke="#439aa3" stroke-width="2" />
    <path d="M0,500 Q480,450 960,500 T1920,500" fill="none" stroke="#0a423b" stroke-width="1.5" />
    <path d="M0,700 Q480,650 960,700 T1920,700" fill="none" stroke="#439aa3" stroke-width="1" />
  </g>
  
  <!-- Athletic accent shapes -->
  <g opacity="0.03">
    <polygon points="100,100 200,50 300,100 250,200 150,200" fill="#439aa3" />
    <polygon points="1620,880 1720,830 1820,880 1770,980 1670,980" fill="#0a423b" />
  </g>
</svg>