<svg width="1920" height="1080" viewBox="0 0 1920 1080" xmlns="http://www.w3.org/2000/svg">
  <defs>
    <!-- Dynamic gradient -->
    <linearGradient id="dynamicGrad" x1="0%" y1="0%" x2="100%" y2="100%">
      <stop offset="0%" style="stop-color:#ffffff;stop-opacity:1" />
      <stop offset="50%" style="stop-color:#f0f9fa;stop-opacity:1" />
      <stop offset="100%" style="stop-color:#e6f4f5;stop-opacity:1" />
    </linearGradient>
    
    <!-- Victory pattern -->
    <pattern id="victoryLines" x="0" y="0" width="40" height="40" patternUnits="userSpaceOnUse">
      <line x1="0" y1="20" x2="20" y2="0" stroke="#439aa3" stroke-width="0.5" opacity="0.08" />
      <line x1="20" y1="0" x2="40" y2="20" stroke="#439aa3" stroke-width="0.5" opacity="0.08" />
      <line x1="0" y1="20" x2="20" y2="40" stroke="#0a423b" stroke-width="0.3" opacity="0.05" />
      <line x1="20" y1="40" x2="40" y2="20" stroke="#0a423b" stroke-width="0.3" opacity="0.05" />
    </pattern>
    
    <!-- Athletic grid -->
    <pattern id="athleticGrid" x="0" y="0" width="100" height="100" patternUnits="userSpaceOnUse">
      <rect x="0" y="0" width="100" height="100" fill="none" stroke="#439aa3" stroke-width="0.2" opacity="0.05" />
      <line x1="50" y1="0" x2="50" y2="100" stroke="#0a423b" stroke-width="0.1" opacity="0.03" />
      <line x1="0" y1="50" x2="100" y2="50" stroke="#0a423b" stroke-width="0.1" opacity="0.03" />
    </pattern>
  </defs>
  
  <!-- Gradient background -->
  <rect width="1920" height="1080" fill="url(#dynamicGrad)" />
  
  <!-- Victory pattern -->
  <rect width="1920" height="1080" fill="url(#victoryLines)" />
  
  <!-- Athletic grid overlay -->
  <rect width="1920" height="1080" fill="url(#athleticGrid)" />
  
  <!-- Motion lines -->
  <g opacity="0.06">
    <rect x="-100" y="200" width="2200" height="2" fill="#439aa3" transform="rotate(-5 960 540)" />
    <rect x="-100" y="400" width="2200" height="3" fill="#0a423b" transform="rotate(-5 960 540)" />
    <rect x="-100" y="600" width="2200" height="2" fill="#439aa3" transform="rotate(-5 960 540)" />
    <rect x="-100" y="800" width="2200" height="1" fill="#0a423b" transform="rotate(-5 960 540)" />
  </g>
  
  <!-- Large accent shapes -->
  <g opacity="0.02">
    <circle cx="1700" cy="200" r="300" fill="#439aa3" />
    <rect x="50" y="750" width="400" height="400" fill="#0a423b" transform="rotate(45 250 950)" />
  </g>
  
  <!-- Subtle texture noise -->
  <filter id="noise">
    <feTurbulence type="fractalNoise" baseFrequency="0.9" numOctaves="1" result="turbulence" />
    <feColorMatrix in="turbulence" type="saturate" values="0" />
  </filter>
  <rect width="1920" height="1080" fill="#439aa3" filter="url(#noise)" opacity="0.02" />
</svg>